#N canvas 263 84 929 1018 12;
#X obj 72 70 cnv 15 257 265 empty empty empty 20 12 0 14 -233017 -66577
0;
#X floatatom 94 296 5 0 0 0 - - -, f 5;
#X obj 376 167 mscale;
#X msg 665 216 0 2 4 5 7 9 11;
#X msg 665 237 0 2 3 5 7 8 10;
#X msg 665 258 0 4 7;
#X msg 665 279 0 3 7;
#X msg 665 300 0 2 4 7 9;
#X msg 665 321 0 3 5 7 10;
#X text 114 110 Major scale;
#X text 114 131 Minor scale;
#X text 114 152 Major triad;
#X text 114 173 Minor triad;
#X text 114 194 Major pentatonic scale;
#X text 114 215 Minor pentatonic scale;
#X obj 93 110 vradio 21 0 0 7 empty empty empty 0 -8 0 10 -262144 -1
-1 0;
#X msg 665 342 0 2 4 6 7 9 11;
#X obj 71 388 route 0 1 2 3 4 5 6;
#X obj 428 165 mscale;
#X obj 111 350 notoname2;
#X symbolatom 129 296 5 0 0 0 - - -, f 5;
#X text 114 235 Lydian scale;
#X text 84 81 Select Scale:;
#X text 87 271 Select Root:;
#X obj 336 31 inlet;
#X obj 427 31 inlet;
#X obj 549 443 outlet;
#X obj 370 447 outlet;
#X obj 427 443 midioutk2;
#X obj 606 441 midioutk2;
#X obj 45 21 loadbang;
#X connect 1 0 18 1;
#X connect 1 0 19 0;
#X connect 1 0 2 1;
#X connect 2 0 27 0;
#X connect 2 0 28 0;
#X connect 3 0 18 2;
#X connect 3 0 2 2;
#X connect 4 0 18 2;
#X connect 4 0 2 2;
#X connect 5 0 18 2;
#X connect 5 0 2 2;
#X connect 6 0 18 2;
#X connect 6 0 2 2;
#X connect 7 0 18 2;
#X connect 7 0 2 2;
#X connect 8 0 18 2;
#X connect 8 0 2 2;
#X connect 15 0 17 0;
#X connect 16 0 18 2;
#X connect 16 0 2 2;
#X connect 17 0 3 0;
#X connect 17 1 4 0;
#X connect 17 2 5 0;
#X connect 17 3 6 0;
#X connect 17 4 7 0;
#X connect 17 5 8 0;
#X connect 17 6 16 0;
#X connect 18 0 26 0;
#X connect 18 0 29 0;
#X connect 19 0 20 0;
#X connect 24 0 18 0;
#X connect 25 0 2 0;
#X connect 30 0 15 0;
#X connect 30 0 1 0;
#X coords 0 -1 1 1 220 270 1 64 66;
