#N canvas 0 23 1111 624 12;
#X obj 43 275 hradio 15 0 0 4 empty empty empty 0 -8 0 10 -262144 -1
-1 3;
#X obj 43 222 f;
#X obj 79 222 + 1;
#X obj 43 248 mod 4;
#X obj 1518 428 hradio 15 0 0 4 empty empty empty 0 -8 0 10 -262144
-1 -1 1;
#X obj 1518 376 f;
#X obj 1554 376 + 1;
#X obj 1518 402 mod 4;
#X obj 1518 452 select 0 1 2 3;
#X obj 1500 694 f;
#X obj 1534 694 f;
#X obj 1567 694 f;
#X obj 1601 694 f;
#X obj 852 371 hradio 15 0 0 16 empty empty empty 0 -8 0 10 -262144
-1 -1 0;
#X text 854 368 1;
#X text 899 368 4;
#X text 959 368 8;
#X text 1016 368 12;
#X text 1076 368 16;
#X obj 1115 371 tgl 15 0 empty empty empty 17 7 0 10 -262144 -1 -1
1 1;
#X obj 1164 371 tgl 15 0 empty empty empty 17 7 0 10 -262144 -1 -1
1 1;
#X text 1130 368 Seq1;
#X text 1179 368 Seq2;
#X obj 852 397 hradio 15 0 0 16 empty empty empty 0 -8 0 10 -262144
-1 -1 0;
#X text 854 394 1;
#X text 899 394 4;
#X text 959 394 8;
#X text 1016 394 12;
#X text 1076 394 16;
#X obj 1115 397 tgl 15 0 empty empty empty 17 7 0 10 -262144 -1 -1
0 1;
#X obj 1164 397 tgl 15 0 empty empty empty 17 7 0 10 -262144 -1 -1
0 1;
#X text 1130 394 Seq1;
#X text 1179 394 Seq2;
#X obj 852 423 hradio 15 0 0 16 empty empty empty 0 -8 0 10 -262144
-1 -1 0;
#X text 854 420 1;
#X text 899 420 4;
#X text 959 420 8;
#X text 1016 420 12;
#X text 1076 420 16;
#X obj 1115 423 tgl 15 0 empty empty empty 17 7 0 10 -262144 -1 -1
0 1;
#X obj 1164 423 tgl 15 0 empty empty empty 17 7 0 10 -262144 -1 -1
0 1;
#X text 1130 420 Seq1;
#X text 1179 420 Seq2;
#X obj 852 449 hradio 15 0 0 16 empty empty empty 0 -8 0 10 -262144
-1 -1 0;
#X text 854 446 1;
#X text 899 446 4;
#X text 959 446 8;
#X text 1016 446 12;
#X text 1076 446 16;
#X obj 1115 449 tgl 15 0 empty empty empty 17 7 0 10 -262144 -1 -1
0 1;
#X obj 1164 449 tgl 15 0 empty empty empty 17 7 0 10 -262144 -1 -1
0 1;
#X text 1130 446 Seq1;
#X text 1179 446 Seq2;
#X obj 222 100 f;
#X obj 258 100 + 1;
#X obj 245 53 bng 15 250 50 0 empty empty empty 17 7 0 10 -262144 -1
-1;
#X floatatom 222 165 5 0 0 0 - - -, f 5;
#X obj 222 136 mod;
#X obj 258 134 + 1;
#X obj 222 193 select 0;
#X obj 312 100 f;
#X obj 348 100 + 1;
#X floatatom 312 165 5 0 0 0 - - -, f 5;
#X obj 312 136 mod;
#X obj 348 134 + 1;
#X obj 312 193 select 0;
#X obj 402 100 f;
#X obj 438 100 + 1;
#X floatatom 402 165 5 0 0 0 - - -, f 5;
#X obj 402 136 mod;
#X obj 438 134 + 1;
#X obj 402 193 select 0;
#X obj 492 100 f;
#X obj 528 100 + 1;
#X floatatom 492 165 5 0 0 0 - - -, f 5;
#X obj 492 136 mod;
#X obj 528 134 + 1;
#X obj 492 193 select 0;
#X obj 47 74 spigot;
#X msg 68 43 0;
#X msg 100 43 1;
#X obj 135 43 loadbang;
#X obj 15 13 t b b;
#X obj 63 120 delay 15;
#X obj 1497 241 spigot;
#X msg 1518 210 0;
#X msg 1550 210 1;
#X obj 1585 210 loadbang;
#X obj 1465 180 t b b;
#X obj 1514 277 delay 15;
#X obj 222 222 spigot;
#X obj 222 252 spigot;
#X obj 312 222 spigot;
#X obj 312 252 spigot;
#X obj 402 222 spigot;
#X obj 492 222 spigot;
#X obj 492 252 spigot;
#X text 977 512 Tempo;
#X obj 352 51 metro;
#X obj 316 2 loadbang;
#X msg 316 31 1;
#X obj 402 252 spigot;
#X obj 1096 449 bng 15 250 50 0 empty empty empty 17 7 0 10 -262144
-1 -1;
#X obj 1096 423 bng 15 250 50 0 empty empty empty 17 7 0 10 -262144
-1 -1;
#X obj 1096 397 bng 15 250 50 0 empty empty empty 17 7 0 10 -262144
-1 -1;
#X obj 1096 371 bng 15 250 50 0 empty empty empty 17 7 0 10 -262144
-1 -1;
#X obj 795 66 / 2;
#X floatatom 808 101 7 0 0 0 - - -, f 7;
#X floatatom 492 397 4 0 0 0 - - -, f 4;
#X floatatom 531 397 4 0 0 0 - - -, f 4;
#X floatatom 570 397 4 0 0 0 - - -, f 4;
#X floatatom 609 397 4 0 0 0 - - -, f 4;
#X floatatom 795 39 5 0 0 0 - - -, f 5;
#X msg 795 10 30000;
#X floatatom 1019 512 6 0 0 0 - - -, f 6;
#X obj 315 412 notoname2;
#X symbolatom 492 419 4 0 0 0 - - -, f 4;
#X obj 534 350 hradio 15 0 0 4 empty empty empty 0 -8 0 10 -262144
-1 -1 3;
#X obj 315 439 notoname2;
#X obj 315 464 notoname2;
#X obj 315 489 notoname2;
#X symbolatom 531 419 4 0 0 0 - - -, f 4;
#X symbolatom 570 420 4 0 0 0 - - -, f 4;
#X symbolatom 609 421 4 0 0 0 - - -, f 4;
#X floatatom 674 399 4 0 0 0 - - -, f 4;
#X floatatom 713 399 4 0 0 0 - - -, f 4;
#X floatatom 752 399 4 0 0 0 - - -, f 4;
#X floatatom 791 399 4 0 0 0 - - -, f 4;
#X symbolatom 674 421 4 0 0 0 - - -, f 4;
#X symbolatom 713 421 4 0 0 0 - - -, f 4;
#X symbolatom 752 422 4 0 0 0 - - -, f 4;
#X symbolatom 791 423 4 0 0 0 - - -, f 4;
#X obj 717 351 hradio 15 0 0 4 empty empty empty 0 -8 0 10 -262144
-1 -1 1;
#X obj 933 40 notoname2;
#X obj 966 64 notoname2;
#X obj 1011 88 notoname2;
#X obj 1060 112 notoname2;
#X obj 753 660 inlet;
#X obj 810 657 inlet;
#X obj 743 695 notoname2;
#X obj 822 692 notoname2;
#X symbolatom 607 542 4 0 0 0 - - -, f 4;
#X text 494 543 Quantized note:;
#X symbolatom 789 542 4 0 0 0 - - -, f 4;
#X text 676 543 Quantized note:;
#X floatatom 491 475 4 0 0 0 - - -, f 4;
#X floatatom 530 475 4 0 0 0 - - -, f 4;
#X floatatom 569 475 4 0 0 0 - - -, f 4;
#X floatatom 608 475 4 0 0 0 - - -, f 4;
#X obj 308 554 notoname2;
#X symbolatom 491 497 4 0 0 0 - - -, f 4;
#X obj 308 581 notoname2;
#X obj 308 606 notoname2;
#X obj 308 631 notoname2;
#X symbolatom 530 497 4 0 0 0 - - -, f 4;
#X symbolatom 569 498 4 0 0 0 - - -, f 4;
#X symbolatom 608 499 4 0 0 0 - - -, f 4;
#X floatatom 676 477 4 0 0 0 - - -, f 4;
#X floatatom 715 477 4 0 0 0 - - -, f 4;
#X floatatom 754 477 4 0 0 0 - - -, f 4;
#X floatatom 793 477 4 0 0 0 - - -, f 4;
#X obj 958 191 notoname2;
#X symbolatom 676 499 4 0 0 0 - - -, f 4;
#X obj 958 218 notoname2;
#X obj 958 243 notoname2;
#X obj 958 268 notoname2;
#X symbolatom 715 499 4 0 0 0 - - -, f 4;
#X symbolatom 754 500 4 0 0 0 - - -, f 4;
#X symbolatom 793 501 4 0 0 0 - - -, f 4;
#X obj 1680 458 select 0 1 2 3;
#X obj 1672 690 f;
#X obj 1706 690 f;
#X obj 1739 690 f;
#X obj 1773 690 f;
#X text 492 372 Sequencer 1a;
#X text 674 374 Sequencer 2a;
#X text 491 450 Sequencer 1b;
#X text 676 452 Sequencer 2b;
#X obj 666 144 loadbang;
#X msg 706 180 90;
#X msg 665 185 60;
#X obj 42 314 sel 0 1 2 3;
#X obj 140 314 sel 0 1 2 3;
#X obj 25 773 f;
#X obj 53 773 f;
#X obj 81 773 f;
#X obj 109 773 f;
#X obj 151 773 f;
#X obj 179 773 f;
#X obj 207 773 f;
#X obj 235 773 f;
#X msg 617 186 50;
#X obj 546 948 spigot;
#X obj 1105 799 tgl 15 0 empty empty empty 17 7 0 10 -262144 -1 -1
1 1;
#X obj 604 948 spigot;
#X obj 1133 799 tgl 15 0 empty empty empty 17 7 0 10 -262144 -1 -1
0 1;
#X obj 451 441 vradio 15 0 0 2 empty empty empty 0 -8 0 10 -262144
-1 -1 0;
#X obj 1097 703 sel 0 1;
#X msg 1044 749 0;
#X msg 1083 748 1;
#X msg 1136 749 0;
#X msg 1170 748 1;
#X obj 357 358 loadbang;
#X obj 1169 850 spigot;
#X obj 1228 851 spigot;
#X floatatom 63 845 5 0 0 0 - - -, f 5;
#X floatatom 178 847 5 0 0 0 - - -, f 5;
#X floatatom 1547 783 5 0 0 0 - - -, f 5;
#X floatatom 1711 796 5 0 0 0 - - -, f 5;
#X obj 770 1028 outlet;
#X obj 1312 1029 outlet;
#X text 445 416 a/b;
#X connect 0 0 181 0;
#X connect 0 0 182 0;
#X connect 1 0 2 0;
#X connect 1 0 3 0;
#X connect 2 0 1 1;
#X connect 3 0 0 0;
#X connect 3 0 117 0;
#X connect 4 0 8 0;
#X connect 4 0 169 0;
#X connect 5 0 6 0;
#X connect 5 0 7 0;
#X connect 6 0 5 1;
#X connect 7 0 4 0;
#X connect 7 0 132 0;
#X connect 8 0 9 0;
#X connect 8 1 10 0;
#X connect 8 2 11 0;
#X connect 8 3 12 0;
#X connect 9 0 207 0;
#X connect 10 0 207 0;
#X connect 11 0 207 0;
#X connect 12 0 207 0;
#X connect 13 0 58 0;
#X connect 19 0 90 1;
#X connect 20 0 91 1;
#X connect 23 0 64 0;
#X connect 29 0 92 1;
#X connect 30 0 93 1;
#X connect 33 0 70 0;
#X connect 39 0 94 1;
#X connect 40 0 101 1;
#X connect 43 0 76 0;
#X connect 49 0 95 1;
#X connect 50 0 96 1;
#X connect 53 0 54 0;
#X connect 53 0 57 0;
#X connect 54 0 53 1;
#X connect 55 0 53 0;
#X connect 55 0 60 0;
#X connect 55 0 66 0;
#X connect 55 0 72 0;
#X connect 55 0 113 0;
#X connect 56 0 59 0;
#X connect 57 0 56 0;
#X connect 58 0 57 1;
#X connect 59 0 90 0;
#X connect 59 0 91 0;
#X connect 59 0 105 0;
#X connect 60 0 61 0;
#X connect 60 0 63 0;
#X connect 61 0 60 1;
#X connect 62 0 65 0;
#X connect 63 0 62 0;
#X connect 64 0 63 1;
#X connect 65 0 92 0;
#X connect 65 0 93 0;
#X connect 65 0 104 0;
#X connect 66 0 67 0;
#X connect 66 0 69 0;
#X connect 67 0 66 1;
#X connect 68 0 71 0;
#X connect 69 0 68 0;
#X connect 70 0 69 1;
#X connect 71 0 94 0;
#X connect 71 0 101 0;
#X connect 71 0 103 0;
#X connect 72 0 73 0;
#X connect 72 0 75 0;
#X connect 73 0 72 1;
#X connect 74 0 77 0;
#X connect 75 0 74 0;
#X connect 76 0 75 1;
#X connect 77 0 95 0;
#X connect 77 0 96 0;
#X connect 77 0 102 0;
#X connect 78 0 83 0;
#X connect 78 0 1 0;
#X connect 79 0 78 1;
#X connect 80 0 78 1;
#X connect 81 0 80 0;
#X connect 82 0 79 0;
#X connect 82 1 78 0;
#X connect 83 0 80 0;
#X connect 84 0 89 0;
#X connect 84 0 5 0;
#X connect 85 0 84 1;
#X connect 86 0 84 1;
#X connect 87 0 86 0;
#X connect 88 0 85 0;
#X connect 88 1 84 0;
#X connect 89 0 86 0;
#X connect 90 0 82 0;
#X connect 91 0 88 0;
#X connect 92 0 82 0;
#X connect 93 0 88 0;
#X connect 94 0 82 0;
#X connect 95 0 82 0;
#X connect 96 0 88 0;
#X connect 98 0 55 0;
#X connect 99 0 100 0;
#X connect 100 0 98 0;
#X connect 101 0 88 0;
#X connect 106 0 107 0;
#X connect 107 0 98 1;
#X connect 108 0 115 0;
#X connect 108 0 183 1;
#X connect 109 0 118 0;
#X connect 109 0 184 1;
#X connect 110 0 119 0;
#X connect 110 0 185 1;
#X connect 111 0 120 0;
#X connect 111 0 186 1;
#X connect 112 0 106 0;
#X connect 113 0 112 0;
#X connect 114 0 106 1;
#X connect 115 0 116 0;
#X connect 118 0 121 0;
#X connect 119 0 122 0;
#X connect 120 0 123 0;
#X connect 124 0 133 0;
#X connect 124 0 9 1;
#X connect 125 0 134 0;
#X connect 125 0 10 1;
#X connect 126 0 135 0;
#X connect 126 0 11 1;
#X connect 127 0 136 0;
#X connect 127 0 12 1;
#X connect 133 0 128 0;
#X connect 134 0 129 0;
#X connect 135 0 130 0;
#X connect 136 0 131 0;
#X connect 137 0 139 0;
#X connect 138 0 140 0;
#X connect 139 0 143 0;
#X connect 140 0 141 0;
#X connect 145 0 149 0;
#X connect 145 0 187 1;
#X connect 146 0 151 0;
#X connect 146 0 188 1;
#X connect 147 0 152 0;
#X connect 147 0 189 1;
#X connect 148 0 153 0;
#X connect 148 0 190 1;
#X connect 149 0 150 0;
#X connect 151 0 154 0;
#X connect 152 0 155 0;
#X connect 153 0 156 0;
#X connect 157 0 161 0;
#X connect 157 0 170 1;
#X connect 158 0 163 0;
#X connect 158 0 171 1;
#X connect 159 0 164 0;
#X connect 159 0 172 1;
#X connect 160 0 165 0;
#X connect 160 0 173 1;
#X connect 161 0 162 0;
#X connect 163 0 166 0;
#X connect 164 0 167 0;
#X connect 165 0 168 0;
#X connect 169 0 170 0;
#X connect 169 1 171 0;
#X connect 169 2 172 0;
#X connect 169 3 173 0;
#X connect 170 0 208 0;
#X connect 171 0 208 0;
#X connect 172 0 208 0;
#X connect 173 0 208 0;
#X connect 178 0 180 0;
#X connect 178 0 179 0;
#X connect 178 0 191 0;
#X connect 179 0 114 0;
#X connect 180 0 108 0;
#X connect 180 0 109 0;
#X connect 180 0 110 0;
#X connect 180 0 111 0;
#X connect 180 0 124 0;
#X connect 180 0 125 0;
#X connect 180 0 126 0;
#X connect 180 0 127 0;
#X connect 181 0 183 0;
#X connect 181 1 184 0;
#X connect 181 2 185 0;
#X connect 181 3 186 0;
#X connect 182 0 187 0;
#X connect 182 1 188 0;
#X connect 182 2 189 0;
#X connect 182 3 190 0;
#X connect 183 0 205 0;
#X connect 184 0 205 0;
#X connect 185 0 205 0;
#X connect 186 0 205 0;
#X connect 187 0 206 0;
#X connect 188 0 206 0;
#X connect 189 0 206 0;
#X connect 190 0 206 0;
#X connect 191 0 145 0;
#X connect 191 0 146 0;
#X connect 191 0 147 0;
#X connect 191 0 148 0;
#X connect 191 0 157 0;
#X connect 191 0 158 0;
#X connect 191 0 159 0;
#X connect 191 0 160 0;
#X connect 192 0 209 0;
#X connect 193 0 192 1;
#X connect 193 0 203 1;
#X connect 194 0 209 0;
#X connect 195 0 194 1;
#X connect 195 0 204 1;
#X connect 196 0 197 0;
#X connect 197 0 198 0;
#X connect 197 0 199 0;
#X connect 197 1 200 0;
#X connect 197 1 201 0;
#X connect 198 0 195 0;
#X connect 199 0 193 0;
#X connect 200 0 193 0;
#X connect 201 0 195 0;
#X connect 202 0 196 0;
#X connect 203 0 210 0;
#X connect 204 0 210 0;
#X connect 205 0 192 0;
#X connect 206 0 194 0;
#X connect 207 0 203 0;
#X connect 208 0 204 0;
#X coords 0 -1 1 1 820 250 2 435 333;
